<?xml version="1.0" encoding="iso-8859-1"?>
<!-- Generator: Adobe Illustrator 15.1.0, SVG Export Plug-In . SVG Version: 6.00 Build 0)  -->
<!DOCTYPE svg PUBLIC "-//W3C//DTD SVG 1.1//EN" "http://www.w3.org/Graphics/SVG/1.1/DTD/svg11.dtd">
<svg version="1.1" id="Ebene_1" xmlns="http://www.w3.org/2000/svg" xmlns:xlink="http://www.w3.org/1999/xlink" x="0px" y="0px"
	 width="1260px" height="101px" viewBox="0 0 1260 101" style="enable-background:new 0 0 1260 101;" xml:space="preserve">
<g>
	<defs>
		<rect id="SVGID_1_" y="-414.548" width="1433.387" height="515.548"/>
	</defs>
	<clipPath id="SVGID_2_">
		<use xlink:href="#SVGID_1_"  style="overflow:visible;"/>
	</clipPath>
	<path style="clip-path:url(#SVGID_2_);fill:#134395;" d="M270.797-344.75l-5.926,28.049h0.818
		c17.594-23.093,37.896-33.821,60.618-34.661c43.05,0,46.689,42.914,39.024,79.222l-16.904,80.042
		c-8.29,39.195-27.221,84.175-75.125,85.821c-11.568,0.41-30.997-6.604-41.373-29.296h-0.82L207.031-20.68h-65.193l68.275-324.07
		H270.797z M298.82-261.312c3.016-14.299,8.423-39.849-11.38-39.849c-18.519,0-26.511,19.491-31.45,42.888l-12.083,57.176
		c-4.393,20.798-5.218,45.055,11.667,44.622c21.96,0,26.673-26.411,29.974-42.018L298.82-261.312z"/>
	<path style="clip-path:url(#SVGID_2_);fill:#134395;" d="M464.533-344.75l-7.412,35.062h0.829
		c12.605-24.745,32.159-41.674,59.229-41.674l-15.695,74.269c-6.304-1.233-12.779-1.652-19.335-1.652
		c-18.45,0-26.62,3.717-31.851,22.689l-30.079,142.356h-65.184l48.821-231.05H464.533z"/>
	<path style="clip-path:url(#SVGID_2_);fill:#134395;" d="M567.944-218.499l-8.545,40.425c-2.711,12.795,0.767,23.523,14.954,24.339
		c23.921,1.241,26.083-20.616,31.404-40.012h64.791c-9.283,59.423-47.013,86.642-103.767,87.462
		c-46.825,0.412-83.734-18.979-72.568-71.789l19.881-94.057c12.543-59.414,53.949-78.82,104.461-79.231
		c45.607-0.404,84.169,16.919,73.618,66.846l-13.939,66.017H567.944z M622.194-261.811l4.796-22.705
		c1.736-8.254-0.357-23.517-17.172-23.517c-18.452,0-26.095,14.848-29.505,30.934l-3.213,15.288H622.194z"/>
	<path style="clip-path:url(#SVGID_2_);fill:#134395;" d="M678.578-113.699l48.817-231.057h65.19l-48.819,231.057H678.578z
		 M730.492-358.859l11.768-55.689h65.18l-11.769,55.689H730.492z"/>
	<path style="clip-path:url(#SVGID_2_);fill:#134395;" d="M907.402-276.265c1.665-15.683,5.897-31.768-15.021-31.768
		c-12.701,0-22.941,5.776-25.823,19.397c-2.619,12.371,6.327,18.561,15.123,23.504c38.129,19.393,81.295,30.538,69.696,85.414
		c-10.898,51.575-54.477,73.434-102.436,73.434c-51.657,0-83.035-22.276-68.812-77.975h62.328
		c-4.218,16.09-3.643,34.659,16.043,34.659c13.939,0,24.843-7.008,27.989-21.862c1.488-7.024-0.404-13.617-4.854-17.751
		c-23.281-14.016-57.671-23.925-73.203-47.439c-8.368-12.795-10.825-26.42-7.248-43.331c10.535-49.916,54.435-71.379,99.951-71.379
		c47.545,0,80.627,23.934,67.361,75.097H907.402z"/>
	<path style="clip-path:url(#SVGID_2_);fill:#134395;" d="M956.028-113.699l48.821-231.057h65.186l-48.814,231.057H956.028z
		 M1007.928-358.859l11.781-55.689h65.18l-11.762,55.689H1007.928z"/>
	<path style="clip-path:url(#SVGID_2_);fill:#134395;" d="M1104.378-88.268c-3.403,16.904-2.425,24.268,16.694,22.97
		c13.785-1.296,20.145-4.343,23.691-19.931l9.849-48.946h-0.827c-16.335,16.025-34.008,26.419-51.642,26.419
		c-40.994,0-49.547-38.999-42.046-76.249l16.9-84.036c7.666-38.131,29.858-83.188,72.906-83.188
		c22.374,0.861,38.14,12.134,44.338,36.394h0.814l5.933-29.46h60.68l-49.776,247.363c-11.432,56.748-54.051,77.112-102.842,77.112
		c-49.209,0-79.475-12.55-69.859-68.448H1104.378z M1124.765-188.317c-3.726,13.816-3.757,30.384,12.803,30.384
		c19.247,0,26.954-21.072,30.19-36.389l14.755-69.835c3.624-17.121,5.573-36.802-14.485-37.998
		c-18.326-1.091-27.215,28.994-28.811,42.196L1124.765-188.317z"/>
	<g style="clip-path:url(#SVGID_2_);">
		<path d="M12.646,64.52L1.02,18.692h6.255l5.439,23.186c1.36,5.711,2.583,11.423,3.399,15.843h0.136
			c0.748-4.556,2.176-9.995,3.74-15.911l6.119-23.117h6.188l5.575,23.253c1.292,5.439,2.516,10.879,3.196,15.707h0.136
			c0.952-5.031,2.244-10.131,3.671-15.843l6.051-23.117h6.052L43.992,64.52h-6.188l-5.779-23.865
			c-1.428-5.848-2.38-10.335-2.992-14.959h-0.136c-0.748,4.556-1.835,9.043-3.536,14.959L18.834,64.52H12.646z"/>
		<path d="M68.406,22.363c0,2.04-1.428,3.672-3.808,3.672c-2.176,0-3.604-1.632-3.604-3.672c0-2.039,1.496-3.739,3.739-3.739
			C66.91,18.624,68.406,20.256,68.406,22.363z M61.743,64.52V31.611h5.983V64.52H61.743z"/>
		<path d="M77.654,41.878c0-3.876-0.068-7.207-0.272-10.267h5.236l0.271,6.527h0.204c1.496-4.42,5.167-7.208,9.179-7.208
			c0.612,0,1.088,0.068,1.632,0.136v5.644c-0.612-0.136-1.224-0.136-2.04-0.136c-4.216,0-7.208,3.128-8.023,7.615
			c-0.136,0.816-0.204,1.836-0.204,2.788V64.52h-5.983V41.878z"/>
		<path d="M113.49,58.468c1.836,1.088,4.963,2.312,7.956,2.312c4.283,0,6.323-2.108,6.323-4.896c0-2.856-1.7-4.352-6.052-5.983
			c-5.983-2.176-8.771-5.372-8.771-9.315c0-5.304,4.352-9.655,11.355-9.655c3.332,0,6.255,0.884,8.023,2.04l-1.428,4.352
			c-1.292-0.816-3.671-1.972-6.731-1.972c-3.536,0-5.439,2.04-5.439,4.487c0,2.72,1.903,3.943,6.187,5.644
			c5.644,2.107,8.635,4.964,8.635,9.859c0,5.847-4.556,9.927-12.239,9.927c-3.604,0-6.935-0.952-9.247-2.312L113.49,58.468z"/>
		<path d="M147.897,22.363c0,2.04-1.428,3.672-3.808,3.672c-2.176,0-3.604-1.632-3.604-3.672c0-2.039,1.496-3.739,3.74-3.739
			C146.401,18.624,147.897,20.256,147.897,22.363z M141.233,64.52V31.611h5.983V64.52H141.233z"/>
		<path d="M157.145,40.518c0-3.467-0.068-6.188-0.272-8.906h5.304l0.34,5.439h0.136c1.632-3.061,5.439-6.12,10.879-6.12
			c4.556,0,11.627,2.72,11.627,14.007V64.52h-5.983V45.55c0-5.304-1.972-9.724-7.615-9.724c-3.875,0-6.935,2.788-8.023,6.119
			c-0.272,0.748-0.408,1.769-0.408,2.788V64.52h-5.983V40.518z"/>
		<path d="M223.237,16.244v39.776c0,2.924,0.136,6.255,0.272,8.499h-5.304l-0.272-5.711h-0.204
			c-1.768,3.671-5.711,6.459-11.083,6.459c-7.956,0-14.143-6.731-14.143-16.727c-0.068-10.947,6.799-17.61,14.754-17.61
			c5.099,0,8.431,2.38,9.927,4.964h0.136v-19.65H223.237z M217.322,45.006c0-0.748-0.068-1.769-0.272-2.516
			c-0.884-3.74-4.148-6.868-8.635-6.868c-6.188,0-9.859,5.439-9.859,12.647c0,6.663,3.332,12.17,9.723,12.17
			c4.011,0,7.683-2.719,8.771-7.139c0.204-0.816,0.272-1.632,0.272-2.584V45.006z"/>
		<path d="M249.963,31.611l6.459,18.426c1.088,3.06,1.972,5.779,2.651,8.499h0.204c0.748-2.72,1.7-5.439,2.788-8.499l6.392-18.426
			h6.255L261.794,64.52h-5.711l-12.511-32.908H249.963z"/>
		<path d="M310.14,47.793c0,12.171-8.499,17.475-16.387,17.475c-8.839,0-15.774-6.527-15.774-16.931
			c0-10.946,7.275-17.406,16.318-17.406C303.748,30.931,310.14,37.798,310.14,47.793z M284.098,48.133
			c0,7.208,4.08,12.647,9.927,12.647c5.711,0,9.995-5.372,9.995-12.783c0-5.575-2.788-12.579-9.859-12.579
			C287.158,35.418,284.098,41.945,284.098,48.133z"/>
		<path d="M317.69,40.518c0-3.467-0.136-6.188-0.272-8.906h5.236l0.271,5.371h0.204c1.836-3.128,4.896-6.052,10.403-6.052
			c4.419,0,7.819,2.72,9.247,6.596h0.136c1.02-1.904,2.38-3.264,3.74-4.284c1.972-1.495,4.08-2.312,7.207-2.312
			c4.419,0,10.879,2.856,10.879,14.278V64.52h-5.847V45.957c0-6.391-2.38-10.131-7.14-10.131c-3.467,0-6.051,2.516-7.139,5.372
			c-0.272,0.884-0.476,1.903-0.476,2.991v20.33h-5.847V44.802c0-5.235-2.312-8.976-6.867-8.976c-3.672,0-6.459,2.992-7.412,5.983
			c-0.34,0.816-0.476,1.904-0.476,2.924V64.52h-5.848V40.518z"/>
		<path d="M388.954,18.692h24.681v4.963h-18.698v15.23h17.27v4.896h-17.27V64.52h-5.983V18.692z"/>
		<path d="M443.419,56.633c0,2.855,0.136,5.643,0.476,7.887h-5.372l-0.476-4.147h-0.204c-1.836,2.584-5.372,4.896-10.063,4.896
			c-6.664,0-10.063-4.691-10.063-9.451c0-7.955,7.071-12.307,19.786-12.238v-0.681c0-2.651-0.748-7.615-7.479-7.547
			c-3.128,0-6.323,0.884-8.635,2.447l-1.36-4.011c2.72-1.7,6.731-2.856,10.879-2.856c10.063,0,12.511,6.867,12.511,13.395V56.633z
			 M437.64,47.726c-6.527-0.137-13.938,1.02-13.938,7.411c0,3.943,2.583,5.711,5.575,5.711c4.352,0,7.14-2.72,8.091-5.507
			c0.204-0.681,0.272-1.36,0.272-1.904V47.726z"/>
		<path d="M476.535,63.363c-1.564,0.748-5.032,1.904-9.451,1.904c-9.927,0-16.387-6.731-16.387-16.795
			c0-10.131,6.936-17.542,17.679-17.542c3.535,0,6.663,0.884,8.295,1.769l-1.36,4.555c-1.428-0.748-3.671-1.563-6.935-1.563
			c-7.547,0-11.627,5.644-11.627,12.442c0,7.615,4.896,12.307,11.423,12.307c3.399,0,5.644-0.815,7.343-1.563L476.535,63.363z"/>
		<path d="M483.541,16.244h5.983v20.603h0.136c0.952-1.7,2.448-3.264,4.284-4.284c1.768-1.02,3.875-1.632,6.119-1.632
			c4.419,0,11.491,2.72,11.491,14.007V64.52h-5.983V45.617c0-5.303-1.972-9.723-7.615-9.723c-3.875,0-6.867,2.72-8.023,5.915
			c-0.34,0.884-0.408,1.769-0.408,2.856V64.52h-5.983V16.244z"/>
		<path d="M549.566,43.985v4.352h-16.794v-4.352H549.566z"/>
		<path d="M571.599,64.52V36.166h-4.555v-4.555h4.555v-1.564c0-4.623,1.088-8.839,3.808-11.49c2.244-2.176,5.236-3.061,8.023-3.061
			c2.176,0,3.943,0.477,5.1,0.952l-0.816,4.624c-0.884-0.408-2.04-0.748-3.808-0.748c-5.1,0-6.392,4.419-6.392,9.519v1.769h7.956
			v4.555h-7.956V64.52H571.599z"/>
		<path d="M618.38,55.477c0,3.468,0.068,6.459,0.271,9.043h-5.303l-0.34-5.371h-0.136c-1.496,2.651-5.031,6.119-10.879,6.119
			c-5.167,0-11.354-2.924-11.354-14.415V31.611h5.983v18.153c0,6.256,1.972,10.539,7.343,10.539c4.012,0,6.8-2.787,7.888-5.507
			c0.34-0.816,0.544-1.904,0.544-3.061V31.611h5.983V55.477z M595.126,22.296c0-1.904,1.496-3.468,3.468-3.468
			c1.836,0,3.264,1.496,3.264,3.468c0,1.836-1.36,3.468-3.4,3.468C596.554,25.764,595.126,24.132,595.126,22.296z M607.705,22.296
			c0-1.904,1.496-3.468,3.4-3.468s3.332,1.496,3.332,3.468c0,1.836-1.36,3.468-3.4,3.468
			C609.064,25.764,607.705,24.132,607.705,22.296z"/>
		<path d="M628.31,41.878c0-3.876-0.068-7.207-0.272-10.267h5.236l0.271,6.527h0.204c1.496-4.42,5.167-7.208,9.179-7.208
			c0.612,0,1.088,0.068,1.632,0.136v5.644c-0.612-0.136-1.224-0.136-2.04-0.136c-4.216,0-7.208,3.128-8.023,7.615
			c-0.136,0.816-0.204,1.836-0.204,2.788V64.52h-5.983V41.878z"/>
		<path d="M672.645,64.52l-11.627-45.827h6.255l5.439,23.186c1.36,5.711,2.583,11.423,3.399,15.843h0.136
			c0.748-4.556,2.176-9.995,3.739-15.911l6.12-23.117h6.188l5.575,23.253c1.292,5.439,2.516,10.879,3.196,15.707h0.136
			c0.952-5.031,2.244-10.131,3.672-15.843l6.051-23.117h6.051L703.989,64.52h-6.188l-5.779-23.865
			c-1.428-5.848-2.38-10.335-2.992-14.959h-0.136c-0.748,4.556-1.836,9.043-3.536,14.959l-6.527,23.865H672.645z"/>
		<path d="M744.042,56.633c0,2.855,0.136,5.643,0.476,7.887h-5.371l-0.476-4.147h-0.204c-1.836,2.584-5.371,4.896-10.063,4.896
			c-6.663,0-10.062-4.691-10.062-9.451c0-7.955,7.071-12.307,19.786-12.238v-0.681c0-2.651-0.748-7.615-7.479-7.547
			c-3.128,0-6.323,0.884-8.635,2.447l-1.36-4.011c2.72-1.7,6.731-2.856,10.879-2.856c10.063,0,12.511,6.867,12.511,13.395V56.633z
			 M738.263,47.726c-6.527-0.137-13.938,1.02-13.938,7.411c0,3.943,2.584,5.711,5.575,5.711c4.352,0,7.14-2.72,8.091-5.507
			c0.204-0.681,0.272-1.36,0.272-1.904V47.726z"/>
		<path d="M752.884,58.468c1.836,1.088,4.964,2.312,7.955,2.312c4.284,0,6.323-2.108,6.323-4.896c0-2.856-1.699-4.352-6.051-5.983
			c-5.983-2.176-8.771-5.372-8.771-9.315c0-5.304,4.352-9.655,11.355-9.655c3.331,0,6.255,0.884,8.022,2.04l-1.428,4.352
			c-1.292-0.816-3.672-1.972-6.731-1.972c-3.535,0-5.439,2.04-5.439,4.487c0,2.72,1.904,3.943,6.188,5.644
			c5.644,2.107,8.635,4.964,8.635,9.859c0,5.847-4.555,9.927-12.238,9.927c-3.604,0-6.936-0.952-9.247-2.312L752.884,58.468z"/>
		<path d="M779.812,58.468c1.836,1.088,4.964,2.312,7.955,2.312c4.284,0,6.323-2.108,6.323-4.896c0-2.856-1.699-4.352-6.051-5.983
			c-5.983-2.176-8.771-5.372-8.771-9.315c0-5.304,4.352-9.655,11.355-9.655c3.331,0,6.255,0.884,8.022,2.04l-1.428,4.352
			c-1.292-0.816-3.672-1.972-6.731-1.972c-3.535,0-5.439,2.04-5.439,4.487c0,2.72,1.904,3.943,6.188,5.644
			c5.644,2.107,8.635,4.964,8.635,9.859c0,5.847-4.555,9.927-12.238,9.927c-3.604,0-6.936-0.952-9.247-2.312L779.812,58.468z"/>
		<path d="M810.887,49.153c0.137,8.091,5.235,11.423,11.287,11.423c4.283,0,6.936-0.748,9.111-1.7l1.088,4.284
			c-2.108,0.951-5.779,2.107-11.016,2.107c-10.131,0-16.182-6.731-16.182-16.658c0-9.928,5.848-17.679,15.435-17.679
			c10.811,0,13.599,9.384,13.599,15.435c0,1.224-0.068,2.107-0.204,2.788H810.887z M828.43,44.869
			c0.067-3.739-1.564-9.654-8.296-9.654c-6.119,0-8.703,5.507-9.179,9.654H828.43z"/>
		<path d="M841.623,41.878c0-3.876-0.068-7.207-0.272-10.267h5.235l0.272,6.527h0.204c1.495-4.42,5.167-7.208,9.179-7.208
			c0.612,0,1.088,0.068,1.632,0.136v5.644c-0.612-0.136-1.224-0.136-2.04-0.136c-4.216,0-7.207,3.128-8.022,7.615
			c-0.137,0.816-0.204,1.836-0.204,2.788V64.52h-5.983V41.878z"/>
		<path d="M854.339,72.951c1.496-4.08,3.332-11.355,4.079-16.318l6.664-0.681c-1.632,5.779-4.624,13.327-6.527,16.522
			L854.339,72.951z"/>
		<path d="M894.388,64.52l-11.627-45.827h6.256l5.439,23.186c1.359,5.711,2.584,11.423,3.399,15.843h0.136
			c0.748-4.556,2.176-9.995,3.74-15.911l6.119-23.117h6.188l5.575,23.253c1.292,5.439,2.516,10.879,3.195,15.707h0.137
			c0.951-5.031,2.243-10.131,3.672-15.843l6.051-23.117h6.052L925.732,64.52h-6.188l-5.779-23.865
			c-1.428-5.848-2.379-10.335-2.991-14.959h-0.136c-0.748,4.556-1.836,9.043-3.536,14.959l-6.527,23.865H894.388z"/>
		<path d="M965.786,56.633c0,2.855,0.136,5.643,0.476,7.887h-5.371l-0.476-4.147h-0.204c-1.836,2.584-5.371,4.896-10.063,4.896
			c-6.663,0-10.062-4.691-10.062-9.451c0-7.955,7.071-12.307,19.786-12.238v-0.681c0-2.651-0.748-7.615-7.479-7.547
			c-3.128,0-6.323,0.884-8.635,2.447l-1.36-4.011c2.72-1.7,6.731-2.856,10.879-2.856c10.063,0,12.511,6.867,12.511,13.395V56.633z
			 M944.437,22.296c0-1.904,1.496-3.468,3.468-3.468c1.836,0,3.264,1.496,3.264,3.468c0,1.836-1.36,3.468-3.4,3.468
			C945.864,25.764,944.437,24.132,944.437,22.296z M960.007,47.726c-6.527-0.137-13.938,1.02-13.938,7.411
			c0,3.943,2.584,5.711,5.575,5.711c4.352,0,7.14-2.72,8.091-5.507c0.204-0.681,0.272-1.36,0.272-1.904V47.726z M957.016,22.296
			c0-1.904,1.495-3.468,3.399-3.468c1.903,0,3.331,1.496,3.331,3.468c0,1.836-1.359,3.468-3.399,3.468
			C958.375,25.764,957.016,24.132,957.016,22.296z"/>
		<path d="M975.444,41.878c0-3.876-0.068-7.207-0.272-10.267h5.235l0.272,6.527h0.204c1.495-4.42,5.167-7.208,9.179-7.208
			c0.612,0,1.088,0.068,1.632,0.136v5.644c-0.612-0.136-1.224-0.136-2.04-0.136c-4.215,0-7.207,3.128-8.023,7.615
			c-0.136,0.816-0.203,1.836-0.203,2.788V64.52h-5.983V41.878z"/>
		<path d="M997.681,40.518c0-3.467-0.137-6.188-0.272-8.906h5.235l0.272,5.371h0.204c1.835-3.128,4.896-6.052,10.402-6.052
			c4.42,0,7.819,2.72,9.247,6.596h0.137c1.02-1.904,2.379-3.264,3.739-4.284c1.972-1.495,4.079-2.312,7.207-2.312
			c4.42,0,10.879,2.856,10.879,14.278V64.52h-5.848V45.957c0-6.391-2.38-10.131-7.139-10.131c-3.468,0-6.052,2.516-7.14,5.372
			c-0.271,0.884-0.476,1.903-0.476,2.991v20.33h-5.848V44.802c0-5.235-2.312-8.976-6.867-8.976c-3.672,0-6.46,2.992-7.411,5.983
			c-0.34,0.816-0.477,1.904-0.477,2.924V64.52h-5.847V40.518z"/>
		<path d="M1057.724,49.153c0.136,8.091,5.235,11.423,11.287,11.423c4.283,0,6.936-0.748,9.111-1.7l1.088,4.284
			c-2.108,0.951-5.779,2.107-11.015,2.107c-10.132,0-16.183-6.731-16.183-16.658c0-9.928,5.847-17.679,15.435-17.679
			c10.811,0,13.599,9.384,13.599,15.435c0,1.224-0.068,2.107-0.204,2.788H1057.724z M1075.266,44.869
			c0.068-3.739-1.563-9.654-8.295-9.654c-6.119,0-8.703,5.507-9.179,9.654H1075.266z"/>
		<path d="M1084.584,72.951c1.496-4.08,3.332-11.355,4.08-16.318l6.663-0.681c-1.632,5.779-4.624,13.327-6.527,16.522
			L1084.584,72.951z"/>
		<path d="M1117.154,19.372c3.604-0.612,7.887-1.02,12.578-1.02c8.499,0,14.551,2.039,18.562,5.711
			c4.147,3.739,6.527,9.043,6.527,16.454c0,7.479-2.38,13.599-6.596,17.814c-4.352,4.283-11.423,6.596-20.33,6.596
			c-4.283,0-7.751-0.204-10.742-0.544V19.372z M1123.069,59.896c1.496,0.203,3.672,0.271,5.983,0.271
			c12.715,0,19.514-7.071,19.514-19.446c0.068-10.811-6.051-17.678-18.562-17.678c-3.06,0-5.372,0.271-6.936,0.611V59.896z"/>
		<path d="M1185.354,56.633c0,2.855,0.136,5.643,0.476,7.887h-5.371l-0.476-4.147h-0.204c-1.836,2.584-5.371,4.896-10.063,4.896
			c-6.663,0-10.062-4.691-10.062-9.451c0-7.955,7.071-12.307,19.786-12.238v-0.681c0-2.651-0.748-7.615-7.479-7.547
			c-3.128,0-6.323,0.884-8.635,2.447l-1.36-4.011c2.72-1.7,6.731-2.856,10.879-2.856c10.063,0,12.511,6.867,12.511,13.395V56.633z
			 M1179.575,47.726c-6.527-0.137-13.938,1.02-13.938,7.411c0,3.943,2.584,5.711,5.575,5.711c4.352,0,7.14-2.72,8.091-5.507
			c0.204-0.681,0.272-1.36,0.272-1.904V47.726z"/>
		<path d="M1218.47,63.363c-1.563,0.748-5.031,1.904-9.451,1.904c-9.927,0-16.386-6.731-16.386-16.795
			c0-10.131,6.936-17.542,17.678-17.542c3.536,0,6.664,0.884,8.295,1.769l-1.359,4.555c-1.428-0.748-3.672-1.563-6.936-1.563
			c-7.547,0-11.627,5.644-11.627,12.442c0,7.615,4.896,12.307,11.423,12.307c3.4,0,5.644-0.815,7.344-1.563L1218.47,63.363z"/>
		<path d="M1225.477,16.244h5.983v20.603h0.136c0.952-1.7,2.447-3.264,4.283-4.284c1.768-1.02,3.876-1.632,6.119-1.632
			c4.42,0,11.491,2.72,11.491,14.007V64.52h-5.983V45.617c0-5.303-1.972-9.723-7.615-9.723c-3.875,0-6.867,2.72-8.023,5.915
			c-0.34,0.884-0.407,1.769-0.407,2.856V64.52h-5.983V16.244z"/>
	</g>
</g>
</svg>
