<?xml version="1.0" encoding="utf-8"?>
<!-- Generator: Adobe Illustrator 15.1.0, SVG Export Plug-In . SVG Version: 6.00 Build 0)  -->
<!DOCTYPE svg PUBLIC "-//W3C//DTD SVG 1.1//EN" "http://www.w3.org/Graphics/SVG/1.1/DTD/svg11.dtd">
<svg version="1.1" id="Ebene_1" xmlns="http://www.w3.org/2000/svg" xmlns:xlink="http://www.w3.org/1999/xlink" x="0px" y="0px"
	 width="1119.831px" height="393.868px" viewBox="0 0 1119.831 393.868" enable-background="new 0 0 1119.831 393.868"
	 xml:space="preserve">
<g>
	<path fill="#083197" d="M128.959,69.798l-5.926,28.049h0.818c17.594-23.093,37.896-33.821,60.618-34.661
		c43.05,0,46.689,42.914,39.024,79.222l-16.904,80.042c-8.29,39.195-27.221,84.175-75.125,85.821
		c-11.568,0.41-30.997-6.604-41.373-29.296h-0.82L65.193,393.868H0l68.275-324.07H128.959z M156.982,153.235
		c3.016-14.299,8.423-39.849-11.38-39.849c-18.519,0-26.511,19.491-31.45,42.888l-12.083,57.176
		c-4.393,20.798-5.218,45.055,11.667,44.622c21.96,0,26.673-26.411,29.974-42.018L156.982,153.235z"/>
	<path fill="#083197" d="M322.695,69.798l-7.412,35.062h0.829c12.605-24.745,32.159-41.674,59.229-41.674l-15.695,74.269
		c-6.304-1.233-12.779-1.652-19.335-1.652c-18.45,0-26.62,3.717-31.851,22.689l-30.079,142.356h-65.184l48.821-231.05H322.695z"/>
	<path fill="#083197" d="M426.106,196.049l-8.545,40.425c-2.711,12.795,0.767,23.523,14.954,24.339
		c23.921,1.241,26.083-20.616,31.404-40.012h64.791c-9.283,59.423-47.013,86.642-103.767,87.462
		c-46.825,0.412-83.734-18.979-72.568-71.789l19.881-94.057c12.543-59.414,53.949-78.82,104.461-79.231
		c45.607-0.404,84.169,16.919,73.618,66.846l-13.939,66.017H426.106z M480.356,152.737l4.796-22.705
		c1.736-8.254-0.357-23.517-17.172-23.517c-18.452,0-26.095,14.848-29.505,30.934l-3.213,15.288H480.356z"/>
	<path fill="#083197" d="M536.739,300.849l48.817-231.057h65.19l-48.819,231.057H536.739z M588.654,55.688L600.421,0h65.18
		l-11.769,55.689H588.654z"/>
	<path fill="#083197" d="M765.564,138.283c1.665-15.683,5.897-31.768-15.021-31.768c-12.701,0-22.941,5.776-25.823,19.397
		c-2.619,12.371,6.327,18.561,15.123,23.504c38.129,19.393,81.295,30.538,69.696,85.414
		c-10.898,51.575-54.477,73.434-102.436,73.434c-51.657,0-83.035-22.276-68.812-77.975h62.328
		c-4.218,16.09-3.643,34.659,16.043,34.659c13.939,0,24.843-7.008,27.989-21.862c1.488-7.024-0.404-13.617-4.854-17.751
		c-23.281-14.016-57.671-23.925-73.203-47.439c-8.368-12.795-10.825-26.42-7.248-43.331c10.535-49.916,54.435-71.379,99.951-71.379
		c47.545,0,80.627,23.934,67.361,75.097H765.564z"/>
	<path fill="#083197" d="M814.19,300.849l48.821-231.057h65.186l-48.814,231.057H814.19z M866.089,55.688L877.871,0h65.18
		l-11.762,55.689H866.089z"/>
	<path fill="#083197" d="M962.54,326.28c-3.403,16.904-2.425,24.268,16.694,22.97c13.785-1.296,20.145-4.343,23.691-19.931
		l9.849-48.946h-0.827c-16.335,16.025-34.008,26.419-51.642,26.419c-40.994,0-49.547-38.999-42.046-76.249l16.9-84.036
		c7.666-38.131,29.858-83.188,72.906-83.188c22.374,0.861,38.14,12.134,44.338,36.394h0.814l5.933-29.46h60.68l-49.776,247.363
		c-11.432,56.748-54.051,77.112-102.842,77.112c-49.209,0-79.475-12.55-69.859-68.448H962.54z M982.926,226.231
		c-3.726,13.816-3.757,30.384,12.803,30.384c19.247,0,26.954-21.072,30.19-36.389l14.755-69.835
		c3.624-17.121,5.573-36.802-14.485-37.998c-18.326-1.091-27.215,28.994-28.811,42.196L982.926,226.231z"/>
</g>
</svg>
